#N canvas 122 517 701 404 10;
#X obj -20167 -270 r~ object01;
#X obj -20081 -270 r~ object02;
#X obj -20003 -270 r~ object03;
#X obj -19926 -269 r~ object04;
#X obj -19852 -269 r~ object05;
#X obj -20161 -223 r~ object06;
#X obj -20075 -223 r~ object07;
#X obj -19997 -223 r~ object08;
#X obj -19920 -222 r~ object09;
#X obj -19846 -222 r~ object10;
#X obj -20158 -179 r~ object11;
#X obj -20072 -179 r~ object12;
#X obj -19994 -179 r~ object13;
#X obj -19917 -178 r~ object14;
#X obj -19843 -178 r~ object15;
#X obj -19663 -180 outlet~;
#X obj -19663 -219 *~ 1;
#X connect 0 0 16 0;
#X connect 1 0 16 0;
#X connect 2 0 16 0;
#X connect 3 0 16 0;
#X connect 4 0 16 0;
#X connect 5 0 16 0;
#X connect 6 0 16 0;
#X connect 7 0 16 0;
#X connect 8 0 16 0;
#X connect 9 0 16 0;
#X connect 10 0 16 0;
#X connect 11 0 16 0;
#X connect 12 0 16 0;
#X connect 13 0 16 0;
#X connect 14 0 16 0;
#X connect 16 0 15 0;
