#N canvas 760 461 680 501 10;
#X obj 112 207 outlet~;
#X obj 78 63 inlet~;
#X obj 184 50 inlet~;
#X obj 126 120 tgl 15 0 empty empty empty 17 7 0 10 -262144 -1 -1 1
1;
#X msg 360 160 \$1 50;
#X obj 360 210 line~;
#X obj 359 113 tgl 15 0 empty empty empty 17 7 0 10 -262144 -1 -1 0
1;
#X obj 51 170 *~ 1;
#X obj 160 120 tgl 15 0 empty empty empty 17 7 0 10 -262144 -1 -1 0
1;
#X obj 194 165 *~ 1;
#X obj 124 14 routeOSC /create;
#X obj 308 54 routeOSC /sequenz;
#X obj 252 -127 r osc;
#X connect 1 0 7 0;
#X connect 2 0 9 0;
#X connect 3 0 7 1;
#X connect 4 0 5 0;
#X connect 6 0 4 0;
#X connect 7 0 0 0;
#X connect 8 0 9 1;
#X connect 9 0 0 0;
#X connect 10 0 3 0;
#X connect 11 0 8 0;
#X connect 12 0 11 0;
#X connect 12 0 10 0;
#X coords 0 -1 1 1 85 60 2 100 100;
