#N canvas 35 105 996 713 10;
#X obj 390 577 dac~;
#X obj 243 382 *~;
#X msg 259 308 \$1 50;
#X obj 169 234 knob 32 32 0 2 0 0 empty empty Volume 0 -15 0 18 -262144
-1 -1 0 1;
#X obj 259 337 line~;
#X obj 231 566 s~ VU;
#X obj 112 19 r~ VU;
#X obj 112 45 env~;
#X obj 114 147 vu 15 120 empty empty -1 -8 0 10 -66577 -1 1 0;
#X obj 112 77 - 100;
#X obj 379 539 freeverb~;
#X text 125 306 smooth volume up/down;
#X text 146 45 convert from signal to controll;
#X msg 368 357 bypass \$1;
#X msg 505 356 wet \$1;
#X msg 449 357 dry \$1;
#X obj 175 117 tgl 15 0 empty empty Reverb 17 7 0 10 -262144 -1 -1
0 1;
#X obj 236 117 hsl 20 15 0 1 0 0 empty empty Wet -2 -8 0 10 -262144
-1 -1 0 1;
#X obj 238 150 hsl 20 15 0 1 0 0 empty empty Dry -2 -8 0 10 -262144
-1 -1 0 1;
#X obj 294 573 outlet~;
#X obj 172 351 inlet~;
#X obj 300 431 limiter~;
#X obj 256 403 *~ 2;
#X obj 256 468 *~;
#X obj 256 435 z~ 64;
#X text 16 350 on/off incoming Signal ->;
#X obj 392 191 routeOSC /masterVol;
#X obj 399 135 r osc;
#X connect 1 0 22 0;
#X connect 2 0 4 0;
#X connect 3 0 2 0;
#X connect 4 0 1 1;
#X connect 6 0 7 0;
#X connect 7 0 9 0;
#X connect 9 0 8 0;
#X connect 10 0 0 0;
#X connect 10 1 0 1;
#X connect 13 0 10 0;
#X connect 14 0 10 0;
#X connect 15 0 10 0;
#X connect 16 0 13 0;
#X connect 17 0 14 0;
#X connect 18 0 15 0;
#X connect 20 0 1 0;
#X connect 21 0 23 1;
#X connect 22 0 21 0;
#X connect 22 0 24 0;
#X connect 23 0 10 0;
#X connect 23 0 10 1;
#X connect 23 0 5 0;
#X connect 23 0 19 0;
#X connect 24 0 23 0;
#X connect 26 0 3 0;
#X connect 27 0 26 0;
#X coords 0 -1 1 1 200 200 1 100 100;
