#N canvas 147 158 1568 933 10;
#X obj 418 703 *~;
#X obj 219 236 osc~;
#X obj 291 236 osc~;
#X obj 353 235 osc~;
#X obj 413 231 osc~;
#X obj 475 235 osc~;
#X obj 683 246 osc~;
#X obj 609 240 osc~;
#X obj 545 233 osc~;
#X floatatom 219 207 5 0 0 0 - - -;
#X floatatom 291 206 5 0 0 0 - - -;
#X floatatom 353 205 5 0 0 0 - - -;
#X floatatom 413 203 5 0 0 0 - - -;
#X floatatom 474 205 5 0 0 0 - - -;
#X floatatom 545 206 5 0 0 0 - - -;
#X floatatom 608 204 5 0 0 0 - - -;
#X floatatom 683 210 5 0 0 0 - - -;
#X obj 744 249 osc~;
#X floatatom 744 212 5 0 0 0 - - -;
#X obj 822 246 osc~;
#X floatatom 822 216 5 0 0 0 - - -;
#X obj 890 249 osc~;
#X floatatom 890 218 5 0 0 0 - - -;
#X obj 616 591 *~ 0.5;
#X obj 616 567 +~ 1;
#X text 129 304 carrier;
#X obj 291 179 * 2;
#X obj 219 179 * 1;
#X obj 353 176 * 3;
#X obj 413 178 * 4;
#X obj 474 178 * 5;
#X obj 545 175 * 6;
#X obj 608 176 * 7;
#X obj 683 179 * 8;
#X obj 744 178 * 9;
#X obj 821 180 * 10;
#X obj 890 180 * 11;
#X floatatom 692 73 5 0 0 0 - - -;
#X text 728 -13 base Freq;
#X obj 692 44 mtof;
#X obj 946 246 osc~;
#X floatatom 945 215 5 0 0 0 - - -;
#X obj 1014 245 osc~;
#X floatatom 1013 214 5 0 0 0 - - -;
#X obj 1080 253 osc~;
#X floatatom 1080 222 5 0 0 0 - - -;
#X obj 945 183 * 12;
#X obj 1013 182 * 13;
#X obj 1080 188 * 14;
#X obj 1132 249 osc~;
#X floatatom 1132 218 5 0 0 0 - - -;
#X obj 1132 187 * 15;
#X obj 1188 254 osc~;
#X floatatom 1188 223 5 0 0 0 - - -;
#X obj 1241 250 osc~;
#X floatatom 1241 220 5 0 0 0 - - -;
#X obj 1188 189 * 16;
#X obj 1241 189 * 17;
#X obj 219 388 *~ 0.05;
#X obj 276 389 *~ 0.05;
#X obj 338 389 *~ 0.05;
#X obj 398 389 *~ 0.05;
#X obj 460 390 *~ 0.05;
#X obj 530 390 *~ 0.05;
#X obj 594 390 *~ 0.05;
#X obj 668 389 *~ 0.05;
#X obj 729 389 *~ 0.05;
#X obj 807 390 *~ 0.05;
#X obj 875 391 *~ 0.05;
#X obj 931 391 *~ 0.05;
#X obj 999 391 *~ 0.05;
#X obj 1065 392 *~ 0.05;
#X obj 1117 393 *~ 0.05;
#X obj 1173 393 *~ 0.05;
#X obj 1226 394 *~ 0.05;
#X msg 1329 65 bang;
#X floatatom 1346 200 5 0 0 0 - - -;
#X obj 1385 147 mod 2;
#X obj 1405 175 == 0;
#X floatatom 1405 199 5 0 0 0 - - -;
#X obj 338 357 *~;
#X msg 1366 65 stop;
#X obj 460 353 *~;
#X obj 594 356 *~;
#X obj 729 359 *~;
#X obj 875 362 *~;
#X obj 999 363 *~;
#X obj 1117 365 *~;
#X obj 1226 366 *~;
#X obj 276 357 *~;
#X obj 398 358 *~;
#X obj 530 355 *~;
#X obj 668 357 *~;
#X obj 807 360 *~;
#X obj 931 363 *~;
#X obj 1065 364 *~;
#X obj 1173 365 *~;
#X obj 1346 261 line~;
#X msg 1346 230 \$1 50;
#X obj 1410 515 line~;
#X msg 1405 229 \$1 50;
#X obj 418 615 *~;
#X obj 418 538 +~;
#X obj 616 635 -~ 1;
#X text 747 66 parameter;
#X text 1472 152 parameter;
#X obj 1385 120 f;
#X obj 1422 120 + 1;
#X text 1462 122 counter;
#X obj 1385 94 metro 200;
#X floatatom 1457 49 5 0 0 0 - - -;
#X floatatom 616 520 5 0 0 0 - - -;
#X obj 449 670 inlet;
#X obj 692 13 inlet;
#X obj 419 765 outlet~;
#X obj 703 495 inlet;
#X obj 1477 14 inlet;
#X text 520 521 modulation freq;
#X obj 616 543 osc~;
#X connect 0 0 114 0;
#X connect 1 0 58 0;
#X connect 2 0 89 1;
#X connect 3 0 80 1;
#X connect 4 0 90 1;
#X connect 5 0 82 1;
#X connect 6 0 92 1;
#X connect 7 0 83 1;
#X connect 8 0 91 1;
#X connect 9 0 1 0;
#X connect 10 0 2 0;
#X connect 11 0 3 0;
#X connect 12 0 4 0;
#X connect 13 0 5 0;
#X connect 14 0 8 0;
#X connect 15 0 7 0;
#X connect 16 0 6 0;
#X connect 17 0 84 1;
#X connect 18 0 17 0;
#X connect 19 0 93 1;
#X connect 20 0 19 0;
#X connect 21 0 85 1;
#X connect 22 0 21 0;
#X connect 23 0 103 0;
#X connect 24 0 23 0;
#X connect 26 0 10 0;
#X connect 27 0 9 0;
#X connect 28 0 11 0;
#X connect 29 0 12 0;
#X connect 30 0 13 0;
#X connect 31 0 14 0;
#X connect 32 0 15 0;
#X connect 33 0 16 0;
#X connect 34 0 18 0;
#X connect 35 0 20 0;
#X connect 36 0 22 0;
#X connect 37 0 27 0;
#X connect 37 0 26 0;
#X connect 37 0 28 0;
#X connect 37 0 29 0;
#X connect 37 0 30 0;
#X connect 37 0 31 0;
#X connect 37 0 32 0;
#X connect 37 0 33 0;
#X connect 37 0 34 0;
#X connect 37 0 35 0;
#X connect 37 0 36 0;
#X connect 37 0 46 0;
#X connect 37 0 47 0;
#X connect 37 0 48 0;
#X connect 37 0 51 0;
#X connect 37 0 56 0;
#X connect 37 0 57 0;
#X connect 39 0 37 0;
#X connect 39 0 111 0;
#X connect 40 0 94 1;
#X connect 41 0 40 0;
#X connect 42 0 86 1;
#X connect 43 0 42 0;
#X connect 44 0 95 1;
#X connect 45 0 44 0;
#X connect 46 0 41 0;
#X connect 47 0 43 0;
#X connect 48 0 45 0;
#X connect 49 0 87 1;
#X connect 50 0 49 0;
#X connect 51 0 50 0;
#X connect 52 0 96 1;
#X connect 53 0 52 0;
#X connect 54 0 88 1;
#X connect 55 0 54 0;
#X connect 56 0 53 0;
#X connect 57 0 55 0;
#X connect 58 0 102 0;
#X connect 59 0 102 0;
#X connect 60 0 102 0;
#X connect 61 0 102 0;
#X connect 62 0 102 0;
#X connect 63 0 102 0;
#X connect 64 0 102 0;
#X connect 65 0 102 0;
#X connect 66 0 102 0;
#X connect 67 0 102 0;
#X connect 68 0 102 0;
#X connect 69 0 102 0;
#X connect 70 0 102 0;
#X connect 71 0 102 0;
#X connect 72 0 102 0;
#X connect 73 0 102 0;
#X connect 74 0 102 0;
#X connect 75 0 109 0;
#X connect 76 0 98 0;
#X connect 77 0 76 0;
#X connect 77 0 78 0;
#X connect 78 0 79 0;
#X connect 79 0 100 0;
#X connect 80 0 60 0;
#X connect 81 0 109 0;
#X connect 82 0 62 0;
#X connect 83 0 64 0;
#X connect 84 0 66 0;
#X connect 85 0 68 0;
#X connect 86 0 70 0;
#X connect 87 0 72 0;
#X connect 88 0 74 0;
#X connect 89 0 59 0;
#X connect 90 0 61 0;
#X connect 91 0 63 0;
#X connect 92 0 65 0;
#X connect 93 0 67 0;
#X connect 94 0 69 0;
#X connect 95 0 71 0;
#X connect 96 0 73 0;
#X connect 97 0 88 0;
#X connect 97 0 87 0;
#X connect 97 0 86 0;
#X connect 97 0 85 0;
#X connect 97 0 84 0;
#X connect 97 0 83 0;
#X connect 97 0 82 0;
#X connect 97 0 80 0;
#X connect 98 0 97 0;
#X connect 99 0 96 0;
#X connect 99 0 95 0;
#X connect 99 0 94 0;
#X connect 99 0 93 0;
#X connect 99 0 92 0;
#X connect 99 0 91 0;
#X connect 99 0 90 0;
#X connect 99 0 89 0;
#X connect 100 0 99 0;
#X connect 101 0 0 0;
#X connect 102 0 101 0;
#X connect 103 0 101 1;
#X connect 106 0 107 0;
#X connect 106 0 77 0;
#X connect 107 0 106 1;
#X connect 109 0 106 0;
#X connect 110 0 109 1;
#X connect 111 0 118 0;
#X connect 112 0 0 1;
#X connect 113 0 39 0;
#X connect 113 0 75 0;
#X connect 115 0 111 0;
#X connect 116 0 110 0;
#X connect 118 0 24 0;
