#N canvas 642 171 794 743 10;
#X obj 51 130 osc~;
#X obj 36 222 +~;
#X obj 51 191 *~;
#X floatatom 66 162 5 0 0 0 - - -;
#X obj 36 288 osc~;
#X obj 36 69 mtof~;
#X floatatom 51 105 5 0 0 0 - - -;
#X text 90 105 modulation Freq;
#X text 104 163 Modulation amount;
#X obj 36 409 outlet~;
#X obj 36 349 *~;
#X obj 51 320 inlet;
#X obj 36 37 inlet;
#X obj 161 131 inlet;
#X obj 187 256 *~ 0.5;
#X obj 187 300 -~ 1;
#X connect 0 0 2 0;
#X connect 1 0 14 0;
#X connect 2 0 1 1;
#X connect 3 0 2 1;
#X connect 4 0 10 0;
#X connect 5 0 1 0;
#X connect 6 0 0 0;
#X connect 10 0 9 0;
#X connect 11 0 10 1;
#X connect 12 0 5 0;
#X connect 12 0 6 0;
#X connect 13 0 3 0;
#X connect 14 0 15 0;
#X connect 15 0 4 0;
