#N canvas 117 33 1602 922 10;
#X obj 104 148 hradio 30 1 0 15 empty empty empty 0 -8 0 10 -262144
-1 -1 0;
#X obj -77 121 f;
#X obj -38 120 + 1;
#X msg -4 68 stop;
#X obj 764 400 vline~;
#X floatatom 764 544 5 0 0 0 - - -;
#X obj 397 585 *~;
#X obj 764 308 t b;
#X floatatom 422 123 5 0 0 0 Total_Objects - -;
#X obj -77 149 mod 15;
#X obj -258 254 select 0 1 2 3 4 5 6 7 8 9 10 11 12 13 14;
#X obj -941 422 r~ object01;
#X floatatom -867 422 5 0 0 0 - - -;
#X msg -867 398 1;
#X msg -837 397 0;
#X obj -882 442 *~;
#X floatatom -755 422 5 0 0 0 - - -;
#X msg -755 398 1;
#X msg -725 397 0;
#X obj -770 442 *~;
#X obj -829 422 r~ object02;
#X floatatom -645 422 5 0 0 0 - - -;
#X msg -645 398 1;
#X msg -615 397 0;
#X obj -660 442 *~;
#X obj -719 422 r~ object03;
#X floatatom -535 421 5 0 0 0 - - -;
#X msg -535 397 1;
#X msg -505 396 0;
#X obj -550 441 *~;
#X obj -609 421 r~ object04;
#X floatatom -425 421 5 0 0 0 - - -;
#X msg -425 397 1;
#X msg -395 396 0;
#X obj -440 441 *~;
#X obj -499 421 r~ object05;
#X floatatom -315 421 5 0 0 0 - - -;
#X msg -315 397 1;
#X msg -285 396 0;
#X obj -330 441 *~;
#X obj -389 421 r~ object06;
#X floatatom -206 421 5 0 0 0 - - -;
#X msg -206 397 1;
#X msg -176 396 0;
#X obj -221 441 *~;
#X obj -280 421 r~ object07;
#X floatatom -95 421 5 0 0 0 - - -;
#X msg -95 397 1;
#X msg -65 396 0;
#X obj -110 441 *~;
#X obj -169 421 r~ object08;
#X floatatom 15 421 5 0 0 0 - - -;
#X msg 15 397 1;
#X msg 45 396 0;
#X obj 0 441 *~;
#X floatatom 127 421 5 0 0 0 - - -;
#X msg 127 397 1;
#X msg 157 396 0;
#X obj 112 441 *~;
#X floatatom 237 421 5 0 0 0 - - -;
#X msg 237 397 1;
#X msg 267 396 0;
#X obj 222 441 *~;
#X floatatom 347 420 5 0 0 0 - - -;
#X msg 347 396 1;
#X msg 377 395 0;
#X obj 332 440 *~;
#X floatatom 457 420 5 0 0 0 - - -;
#X msg 457 396 1;
#X msg 487 395 0;
#X obj 442 440 *~;
#X floatatom 567 420 5 0 0 0 - - -;
#X msg 567 396 1;
#X msg 597 395 0;
#X obj 552 440 *~;
#X floatatom 676 420 5 0 0 0 - - -;
#X msg 676 396 1;
#X msg 706 395 0;
#X obj 661 440 *~;
#X obj -59 421 r~ object09;
#X obj 53 421 r~ object10;
#X obj 163 421 r~ object11;
#X obj 273 420 r~ object12;
#X obj 383 420 r~ object13;
#X obj 493 420 r~ object14;
#X obj 602 420 r~ object15;
#X obj 107 121 bng 15 250 50 0 empty empty Start 17 7 0 10 -4034 -1
-1;
#X obj 161 121 bng 15 250 50 0 empty empty Stop 17 7 0 10 -258113 -1
-1;
#X msg -77 72 bang;
#X obj 396 692 outlet~;
#X obj 764 514 snapshot~;
#X obj 804 473 metro 10;
#X msg 764 366 1 100 \, 0.7 0 100 \, 0 100 50;
#X obj -77 98 metro 350;
#X obj 422 80 routeOSC /objCount;
#X obj 220 -11 routeOSC /seqSpeed;
#X obj 414 -71 r osc;
#X obj 598 759 bng 15 250 50 0 empty empty empty 17 7 0 10 -262144
-1 -1;
#X msg 571 652 bang;
#X msg 628 644 stop;
#X obj 616 693 metro 400;
#X obj 107 80 routeOSC /startSeq;
#X floatatom 502 122 5 0 0 0 Speed - -;
#X obj 223 80 routeOSC /stopSeq;
#X floatatom 684 647 5 0 0 0 - - -;
#X text 765 348 attack;
#X text 808 349 decay;
#X text 842 349 sustain;
#X text 887 348 release;
#X msg 505 555 \$1 50;
#X obj 505 576 line~;
#X connect 0 0 7 0;
#X connect 0 0 10 0;
#X connect 1 0 2 0;
#X connect 1 0 9 0;
#X connect 2 0 1 1;
#X connect 3 0 93 0;
#X connect 3 0 91 0;
#X connect 4 0 90 0;
#X connect 5 0 109 0;
#X connect 6 0 89 0;
#X connect 7 0 92 0;
#X connect 8 0 9 1;
#X connect 9 0 0 0;
#X connect 10 0 13 0;
#X connect 10 0 18 0;
#X connect 10 0 23 0;
#X connect 10 0 28 0;
#X connect 10 0 33 0;
#X connect 10 0 38 0;
#X connect 10 0 43 0;
#X connect 10 0 48 0;
#X connect 10 0 53 0;
#X connect 10 0 57 0;
#X connect 10 0 61 0;
#X connect 10 0 65 0;
#X connect 10 0 69 0;
#X connect 10 0 73 0;
#X connect 10 0 77 0;
#X connect 10 1 17 0;
#X connect 10 1 14 0;
#X connect 10 2 22 0;
#X connect 10 2 18 0;
#X connect 10 3 23 0;
#X connect 10 3 27 0;
#X connect 10 4 28 0;
#X connect 10 4 32 0;
#X connect 10 5 33 0;
#X connect 10 5 37 0;
#X connect 10 6 38 0;
#X connect 10 6 42 0;
#X connect 10 7 43 0;
#X connect 10 7 47 0;
#X connect 10 8 48 0;
#X connect 10 8 52 0;
#X connect 10 9 53 0;
#X connect 10 9 56 0;
#X connect 10 10 57 0;
#X connect 10 10 60 0;
#X connect 10 11 61 0;
#X connect 10 11 64 0;
#X connect 10 12 65 0;
#X connect 10 12 68 0;
#X connect 10 13 69 0;
#X connect 10 13 72 0;
#X connect 10 14 73 0;
#X connect 10 14 76 0;
#X connect 11 0 15 0;
#X connect 12 0 15 1;
#X connect 13 0 12 0;
#X connect 14 0 12 0;
#X connect 15 0 6 0;
#X connect 16 0 19 1;
#X connect 17 0 16 0;
#X connect 18 0 16 0;
#X connect 19 0 6 0;
#X connect 20 0 19 0;
#X connect 21 0 24 1;
#X connect 22 0 21 0;
#X connect 23 0 21 0;
#X connect 24 0 6 0;
#X connect 25 0 24 0;
#X connect 26 0 29 1;
#X connect 27 0 26 0;
#X connect 28 0 26 0;
#X connect 29 0 6 0;
#X connect 30 0 29 0;
#X connect 31 0 34 1;
#X connect 32 0 31 0;
#X connect 33 0 31 0;
#X connect 34 0 6 0;
#X connect 35 0 34 0;
#X connect 36 0 39 1;
#X connect 37 0 36 0;
#X connect 38 0 36 0;
#X connect 39 0 6 0;
#X connect 40 0 39 0;
#X connect 41 0 44 1;
#X connect 42 0 41 0;
#X connect 43 0 41 0;
#X connect 44 0 6 0;
#X connect 45 0 44 0;
#X connect 46 0 49 1;
#X connect 47 0 46 0;
#X connect 48 0 46 0;
#X connect 49 0 6 0;
#X connect 50 0 49 0;
#X connect 51 0 54 1;
#X connect 52 0 51 0;
#X connect 53 0 51 0;
#X connect 54 0 6 0;
#X connect 55 0 58 1;
#X connect 56 0 55 0;
#X connect 57 0 55 0;
#X connect 58 0 6 0;
#X connect 59 0 62 1;
#X connect 60 0 59 0;
#X connect 61 0 59 0;
#X connect 62 0 6 0;
#X connect 63 0 66 1;
#X connect 64 0 63 0;
#X connect 65 0 63 0;
#X connect 66 0 6 0;
#X connect 67 0 70 1;
#X connect 68 0 67 0;
#X connect 69 0 67 0;
#X connect 70 0 6 0;
#X connect 71 0 74 1;
#X connect 72 0 71 0;
#X connect 73 0 71 0;
#X connect 74 0 6 0;
#X connect 75 0 78 1;
#X connect 76 0 75 0;
#X connect 77 0 75 0;
#X connect 78 0 6 0;
#X connect 79 0 54 0;
#X connect 80 0 58 0;
#X connect 81 0 62 0;
#X connect 82 0 66 0;
#X connect 83 0 70 0;
#X connect 84 0 74 0;
#X connect 85 0 78 0;
#X connect 86 0 88 0;
#X connect 87 0 3 0;
#X connect 88 0 93 0;
#X connect 88 0 91 0;
#X connect 90 0 5 0;
#X connect 91 0 90 0;
#X connect 92 0 4 0;
#X connect 93 0 1 0;
#X connect 94 0 8 0;
#X connect 95 0 102 0;
#X connect 96 0 94 0;
#X connect 96 0 95 0;
#X connect 96 0 101 0;
#X connect 96 0 103 0;
#X connect 98 0 100 0;
#X connect 99 0 100 0;
#X connect 100 0 97 0;
#X connect 101 0 86 0;
#X connect 102 0 93 1;
#X connect 103 0 87 0;
#X connect 104 0 100 1;
#X connect 109 0 110 0;
#X connect 110 0 6 1;
#X coords 0 -1 1 1 460 90 1 100 100;
