#N canvas 108 97 1568 933 10;
#X obj 418 703 *~;
#X obj 616 591 *~ 0.5;
#X obj 616 567 +~ 1;
#X text 129 304 carrier;
#X text 672 538 modulation;
#X msg 651 28 220;
#X floatatom 692 46 5 0 0 0 - - -;
#X text 728 -40 base Freq;
#X obj 692 17 mtof;
#X obj 219 388 *~ 0.05;
#X obj 276 389 *~ 0.05;
#X obj 338 389 *~ 0.05;
#X obj 398 389 *~ 0.05;
#X obj 459 390 *~ 0.05;
#X obj 530 390 *~ 0.05;
#X obj 593 390 *~ 0.05;
#X obj 668 389 *~ 0.05;
#X obj 729 389 *~ 0.05;
#X obj 807 390 *~ 0.05;
#X obj 875 391 *~ 0.05;
#X obj 931 391 *~ 0.05;
#X msg 1095 95 bang;
#X floatatom 1112 230 5 0 0 0 - - -;
#X obj 1151 177 mod 2;
#X obj 1171 205 == 0;
#X floatatom 1171 229 5 0 0 0 - - -;
#X obj 338 357 *~;
#X msg 1132 95 stop;
#X obj 459 353 *~;
#X obj 593 356 *~;
#X obj 729 359 *~;
#X obj 875 362 *~;
#X obj 276 357 *~;
#X obj 398 358 *~;
#X obj 530 355 *~;
#X obj 668 357 *~;
#X obj 807 360 *~;
#X obj 931 363 *~;
#X obj 1112 291 line~;
#X msg 1112 260 \$1 50;
#X obj 1176 545 line~;
#X msg 1171 259 \$1 50;
#X obj 418 615 *~;
#X obj 418 538 +~;
#X obj 616 635 -~ 1;
#X text 1238 182 parameter;
#X obj 1151 150 f;
#X obj 1188 150 + 1;
#X text 1228 152 counter;
#X obj 1151 124 metro 200;
#X floatatom 1223 79 5 0 0 0 - - -;
#X floatatom 616 520 5 0 0 0 - - -;
#X obj 449 670 inlet;
#X obj 692 -14 inlet;
#X obj 419 765 outlet~;
#X obj 703 495 inlet;
#X obj 1243 44 inlet;
#X obj 219 257 phasor~;
#X obj 219 282 expr~ $v1 > 0.5;
#X obj 290 232 phasor~;
#X obj 291 257 expr~ $v1 > 0.5;
#X obj 353 291 phasor~;
#X obj 353 316 expr~ $v1 > 0.5;
#X obj 413 238 phasor~;
#X obj 413 263 expr~ $v1 > 0.5;
#X obj 474 293 phasor~;
#X obj 474 318 expr~ $v1 > 0.5;
#X obj 545 234 phasor~;
#X obj 545 259 expr~ $v1 > 0.5;
#X obj 608 288 phasor~;
#X obj 608 313 expr~ $v1 > 0.5;
#X obj 683 255 phasor~;
#X obj 683 280 expr~ $v1 > 0.5;
#X obj 744 305 phasor~;
#X obj 744 330 expr~ $v1 > 0.5;
#X obj 822 250 phasor~;
#X obj 822 275 expr~ $v1 > 0.5;
#X obj 890 305 phasor~;
#X obj 890 330 expr~ $v1 > 0.5;
#X obj 945 250 phasor~;
#X obj 945 275 expr~ $v1 > 0.5;
#X obj 616 543 osc~;
#X floatatom 219 175 5 0 0 0 - - -;
#X floatatom 290 174 5 0 0 0 - - -;
#X floatatom 353 173 5 0 0 0 - - -;
#X floatatom 413 171 5 0 0 0 - - -;
#X floatatom 474 174 5 0 0 0 - - -;
#X floatatom 608 173 5 0 0 0 - - -;
#X floatatom 683 173 5 0 0 0 - - -;
#X obj 290 101 * 2;
#X obj 219 101 * 1;
#X obj 353 100 * 3;
#X obj 413 100 * 4;
#X obj 474 98 * 6;
#X obj 608 95 * 7;
#X obj 683 95 * 8;
#X floatatom 822 172 5 0 0 0 - - -;
#X floatatom 945 172 5 0 0 0 - - -;
#X obj 822 97 * 16;
#X obj 608 151 + 26.5;
#X floatatom 545 173 5 0 0 0 - - -;
#X obj 545 97 * 6;
#X obj 545 151 + 2.7;
#X floatatom 744 172 5 0 0 0 - - -;
#X obj 744 96 * 8;
#X obj 744 149 + 4;
#X obj 945 96 * 16;
#X obj 945 148 + 2.7;
#X text 986 146 <- detuning;
#X connect 0 0 54 0;
#X connect 1 0 44 0;
#X connect 2 0 1 0;
#X connect 5 0 6 0;
#X connect 6 0 94 0;
#X connect 6 0 95 0;
#X connect 6 0 104 0;
#X connect 6 0 98 0;
#X connect 6 0 106 0;
#X connect 6 0 101 0;
#X connect 6 0 93 0;
#X connect 6 0 92 0;
#X connect 6 0 91 0;
#X connect 6 0 89 0;
#X connect 6 0 90 0;
#X connect 8 0 6 0;
#X connect 8 0 51 0;
#X connect 9 0 43 0;
#X connect 10 0 43 0;
#X connect 11 0 43 0;
#X connect 12 0 43 0;
#X connect 13 0 43 0;
#X connect 14 0 43 0;
#X connect 15 0 43 0;
#X connect 16 0 43 0;
#X connect 17 0 43 0;
#X connect 18 0 43 0;
#X connect 19 0 43 0;
#X connect 20 0 43 0;
#X connect 21 0 49 0;
#X connect 22 0 39 0;
#X connect 23 0 22 0;
#X connect 23 0 24 0;
#X connect 24 0 25 0;
#X connect 25 0 41 0;
#X connect 26 0 11 0;
#X connect 27 0 49 0;
#X connect 28 0 13 0;
#X connect 29 0 15 0;
#X connect 30 0 17 0;
#X connect 31 0 19 0;
#X connect 32 0 10 0;
#X connect 33 0 12 0;
#X connect 34 0 14 0;
#X connect 35 0 16 0;
#X connect 36 0 18 0;
#X connect 37 0 20 0;
#X connect 38 0 31 0;
#X connect 38 0 30 0;
#X connect 38 0 29 0;
#X connect 38 0 28 0;
#X connect 38 0 26 0;
#X connect 39 0 38 0;
#X connect 40 0 37 0;
#X connect 40 0 36 0;
#X connect 40 0 35 0;
#X connect 40 0 34 0;
#X connect 40 0 33 0;
#X connect 40 0 32 0;
#X connect 41 0 40 0;
#X connect 42 0 0 0;
#X connect 43 0 42 0;
#X connect 44 0 42 1;
#X connect 46 0 47 0;
#X connect 46 0 23 0;
#X connect 47 0 46 1;
#X connect 49 0 46 0;
#X connect 50 0 49 1;
#X connect 51 0 81 0;
#X connect 52 0 0 1;
#X connect 53 0 8 0;
#X connect 53 0 21 0;
#X connect 55 0 51 0;
#X connect 56 0 50 0;
#X connect 57 0 58 0;
#X connect 58 0 9 0;
#X connect 59 0 60 0;
#X connect 60 0 32 1;
#X connect 61 0 62 0;
#X connect 62 0 26 1;
#X connect 63 0 64 0;
#X connect 64 0 33 1;
#X connect 65 0 66 0;
#X connect 66 0 28 1;
#X connect 67 0 68 0;
#X connect 68 0 34 1;
#X connect 69 0 70 0;
#X connect 70 0 29 1;
#X connect 71 0 72 0;
#X connect 72 0 35 1;
#X connect 73 0 74 0;
#X connect 74 0 30 1;
#X connect 75 0 76 0;
#X connect 76 0 36 1;
#X connect 77 0 78 0;
#X connect 78 0 31 1;
#X connect 79 0 80 0;
#X connect 80 0 37 1;
#X connect 81 0 2 0;
#X connect 82 0 57 0;
#X connect 83 0 59 0;
#X connect 84 0 61 0;
#X connect 85 0 63 0;
#X connect 86 0 65 0;
#X connect 87 0 69 0;
#X connect 88 0 71 0;
#X connect 89 0 83 0;
#X connect 90 0 82 0;
#X connect 91 0 84 0;
#X connect 92 0 85 0;
#X connect 93 0 86 0;
#X connect 94 0 99 0;
#X connect 95 0 88 0;
#X connect 96 0 75 0;
#X connect 97 0 79 0;
#X connect 98 0 96 0;
#X connect 99 0 87 0;
#X connect 100 0 67 0;
#X connect 101 0 102 0;
#X connect 102 0 100 0;
#X connect 103 0 73 0;
#X connect 104 0 105 0;
#X connect 105 0 103 0;
#X connect 106 0 107 0;
#X connect 107 0 97 0;
