#N canvas -1601 61 1568 933 10;
#X obj 418 703 *~;
#X floatatom 219 207 5 0 0 0 - - -;
#X floatatom 291 206 5 0 0 0 - - -;
#X floatatom 353 205 5 0 0 0 - - -;
#X floatatom 413 203 5 0 0 0 - - -;
#X floatatom 474 205 5 0 0 0 - - -;
#X floatatom 545 206 5 0 0 0 - - -;
#X floatatom 608 204 5 0 0 0 - - -;
#X floatatom 683 210 5 0 0 0 - - -;
#X floatatom 744 212 5 0 0 0 - - -;
#X floatatom 822 216 5 0 0 0 - - -;
#X floatatom 890 218 5 0 0 0 - - -;
#X obj 616 591 *~ 0.5;
#X obj 616 567 +~ 1;
#X text 129 304 carrier;
#X text 672 538 modulation;
#X obj 291 179 * 2;
#X obj 219 179 * 1;
#X msg 651 55 220;
#X obj 353 176 * 3;
#X obj 413 178 * 4;
#X obj 474 178 * 5;
#X obj 545 175 * 6;
#X obj 608 176 * 7;
#X obj 683 179 * 8;
#X obj 744 178 * 9;
#X obj 821 180 * 10;
#X obj 890 180 * 11;
#X floatatom 692 73 5 0 0 0 - - -;
#X text 728 -13 base Freq;
#X obj 692 44 mtof;
#X floatatom 945 215 5 0 0 0 - - -;
#X floatatom 1013 214 5 0 0 0 - - -;
#X floatatom 1080 222 5 0 0 0 - - -;
#X obj 945 183 * 12;
#X obj 1013 182 * 13;
#X obj 1080 188 * 14;
#X floatatom 1132 218 5 0 0 0 - - -;
#X obj 1132 187 * 15;
#X floatatom 1188 223 5 0 0 0 - - -;
#X floatatom 1241 220 5 0 0 0 - - -;
#X obj 1188 189 * 16;
#X obj 1241 189 * 17;
#X obj 219 388 *~ 0.05;
#X obj 276 389 *~ 0.05;
#X obj 338 389 *~ 0.05;
#X obj 398 389 *~ 0.05;
#X obj 459 390 *~ 0.05;
#X obj 530 390 *~ 0.05;
#X obj 593 390 *~ 0.05;
#X obj 668 389 *~ 0.05;
#X obj 729 389 *~ 0.05;
#X obj 807 390 *~ 0.05;
#X obj 875 391 *~ 0.05;
#X obj 931 391 *~ 0.05;
#X obj 999 391 *~ 0.05;
#X obj 1065 392 *~ 0.05;
#X obj 1117 393 *~ 0.05;
#X obj 1173 393 *~ 0.05;
#X obj 1226 394 *~ 0.05;
#X msg 1329 65 bang;
#X floatatom 1346 200 5 0 0 0 - - -;
#X obj 1385 147 mod 2;
#X obj 1405 175 == 0;
#X floatatom 1405 199 5 0 0 0 - - -;
#X obj 338 357 *~;
#X msg 1366 65 stop;
#X obj 459 353 *~;
#X obj 593 356 *~;
#X obj 729 359 *~;
#X obj 875 362 *~;
#X obj 999 363 *~;
#X obj 1117 365 *~;
#X obj 1226 366 *~;
#X obj 276 357 *~;
#X obj 398 358 *~;
#X obj 530 355 *~;
#X obj 668 357 *~;
#X obj 807 360 *~;
#X obj 931 363 *~;
#X obj 1065 364 *~;
#X obj 1173 365 *~;
#X obj 1346 261 line~;
#X msg 1346 230 \$1 50;
#X obj 1410 515 line~;
#X msg 1405 229 \$1 50;
#X obj 418 615 *~;
#X obj 418 538 +~;
#X obj 616 635 -~ 1;
#X text 747 66 parameter;
#X text 1472 152 parameter;
#X obj 1385 120 f;
#X obj 1422 120 + 1;
#X text 1462 122 counter;
#X obj 1385 94 metro 200;
#X floatatom 1457 49 5 0 0 0 - - -;
#X floatatom 616 520 5 0 0 0 - - -;
#X obj 449 670 inlet;
#X obj 692 13 inlet;
#X obj 419 765 outlet~;
#X obj 703 495 inlet;
#X obj 1477 14 inlet;
#X obj 219 257 phasor~;
#X obj 219 282 expr~ $v1 > 0.5;
#X obj 291 232 phasor~;
#X obj 291 257 expr~ $v1 > 0.5;
#X obj 353 291 phasor~;
#X obj 353 316 expr~ $v1 > 0.5;
#X obj 413 238 phasor~;
#X obj 413 263 expr~ $v1 > 0.5;
#X obj 474 293 phasor~;
#X obj 474 318 expr~ $v1 > 0.5;
#X obj 545 234 phasor~;
#X obj 545 259 expr~ $v1 > 0.5;
#X obj 608 288 phasor~;
#X obj 608 313 expr~ $v1 > 0.5;
#X obj 683 255 phasor~;
#X obj 683 280 expr~ $v1 > 0.5;
#X obj 744 305 phasor~;
#X obj 744 330 expr~ $v1 > 0.5;
#X obj 822 250 phasor~;
#X obj 822 275 expr~ $v1 > 0.5;
#X obj 890 305 phasor~;
#X obj 890 330 expr~ $v1 > 0.5;
#X obj 945 250 phasor~;
#X obj 945 275 expr~ $v1 > 0.5;
#X obj 1014 304 phasor~;
#X obj 1014 329 expr~ $v1 > 0.5;
#X obj 1080 254 phasor~;
#X obj 1080 279 expr~ $v1 > 0.5;
#X obj 1132 312 phasor~;
#X obj 1132 337 expr~ $v1 > 0.5;
#X obj 1188 261 phasor~;
#X obj 1188 286 expr~ $v1 > 0.5;
#X obj 1241 312 phasor~;
#X obj 1241 337 expr~ $v1 > 0.5;
#X obj 616 543 osc~;
#X connect 0 0 99 0;
#X connect 1 0 102 0;
#X connect 2 0 104 0;
#X connect 3 0 106 0;
#X connect 4 0 108 0;
#X connect 5 0 110 0;
#X connect 6 0 112 0;
#X connect 7 0 114 0;
#X connect 8 0 116 0;
#X connect 9 0 118 0;
#X connect 10 0 120 0;
#X connect 11 0 122 0;
#X connect 12 0 88 0;
#X connect 13 0 12 0;
#X connect 16 0 2 0;
#X connect 17 0 1 0;
#X connect 18 0 28 0;
#X connect 19 0 3 0;
#X connect 20 0 4 0;
#X connect 21 0 5 0;
#X connect 22 0 6 0;
#X connect 23 0 7 0;
#X connect 24 0 8 0;
#X connect 25 0 9 0;
#X connect 26 0 10 0;
#X connect 27 0 11 0;
#X connect 28 0 17 0;
#X connect 28 0 16 0;
#X connect 28 0 19 0;
#X connect 28 0 20 0;
#X connect 28 0 21 0;
#X connect 28 0 22 0;
#X connect 28 0 23 0;
#X connect 28 0 24 0;
#X connect 28 0 25 0;
#X connect 28 0 26 0;
#X connect 28 0 27 0;
#X connect 28 0 34 0;
#X connect 28 0 35 0;
#X connect 28 0 36 0;
#X connect 28 0 38 0;
#X connect 28 0 41 0;
#X connect 28 0 42 0;
#X connect 30 0 28 0;
#X connect 30 0 96 0;
#X connect 31 0 124 0;
#X connect 32 0 126 0;
#X connect 33 0 128 0;
#X connect 34 0 31 0;
#X connect 35 0 32 0;
#X connect 36 0 33 0;
#X connect 37 0 130 0;
#X connect 38 0 37 0;
#X connect 39 0 132 0;
#X connect 40 0 134 0;
#X connect 41 0 39 0;
#X connect 42 0 40 0;
#X connect 43 0 87 0;
#X connect 44 0 87 0;
#X connect 45 0 87 0;
#X connect 46 0 87 0;
#X connect 47 0 87 0;
#X connect 48 0 87 0;
#X connect 49 0 87 0;
#X connect 50 0 87 0;
#X connect 51 0 87 0;
#X connect 52 0 87 0;
#X connect 53 0 87 0;
#X connect 54 0 87 0;
#X connect 55 0 87 0;
#X connect 56 0 87 0;
#X connect 57 0 87 0;
#X connect 58 0 87 0;
#X connect 59 0 87 0;
#X connect 60 0 94 0;
#X connect 61 0 83 0;
#X connect 62 0 61 0;
#X connect 62 0 63 0;
#X connect 63 0 64 0;
#X connect 64 0 85 0;
#X connect 65 0 45 0;
#X connect 66 0 94 0;
#X connect 67 0 47 0;
#X connect 68 0 49 0;
#X connect 69 0 51 0;
#X connect 70 0 53 0;
#X connect 71 0 55 0;
#X connect 72 0 57 0;
#X connect 73 0 59 0;
#X connect 74 0 44 0;
#X connect 75 0 46 0;
#X connect 76 0 48 0;
#X connect 77 0 50 0;
#X connect 78 0 52 0;
#X connect 79 0 54 0;
#X connect 80 0 56 0;
#X connect 81 0 58 0;
#X connect 82 0 73 0;
#X connect 82 0 72 0;
#X connect 82 0 71 0;
#X connect 82 0 70 0;
#X connect 82 0 69 0;
#X connect 82 0 68 0;
#X connect 82 0 67 0;
#X connect 82 0 65 0;
#X connect 83 0 82 0;
#X connect 84 0 81 0;
#X connect 84 0 80 0;
#X connect 84 0 79 0;
#X connect 84 0 78 0;
#X connect 84 0 77 0;
#X connect 84 0 76 0;
#X connect 84 0 75 0;
#X connect 84 0 74 0;
#X connect 85 0 84 0;
#X connect 86 0 0 0;
#X connect 87 0 86 0;
#X connect 88 0 86 1;
#X connect 91 0 92 0;
#X connect 91 0 62 0;
#X connect 92 0 91 1;
#X connect 94 0 91 0;
#X connect 95 0 94 1;
#X connect 96 0 136 0;
#X connect 97 0 0 1;
#X connect 98 0 30 0;
#X connect 98 0 60 0;
#X connect 100 0 96 0;
#X connect 101 0 95 0;
#X connect 102 0 103 0;
#X connect 103 0 43 0;
#X connect 104 0 105 0;
#X connect 105 0 74 1;
#X connect 106 0 107 0;
#X connect 107 0 65 1;
#X connect 108 0 109 0;
#X connect 109 0 75 1;
#X connect 110 0 111 0;
#X connect 111 0 67 1;
#X connect 112 0 113 0;
#X connect 113 0 76 1;
#X connect 114 0 115 0;
#X connect 115 0 68 1;
#X connect 116 0 117 0;
#X connect 117 0 77 1;
#X connect 118 0 119 0;
#X connect 119 0 69 1;
#X connect 120 0 121 0;
#X connect 121 0 78 1;
#X connect 122 0 123 0;
#X connect 123 0 70 1;
#X connect 124 0 125 0;
#X connect 125 0 79 1;
#X connect 126 0 127 0;
#X connect 127 0 71 1;
#X connect 128 0 129 0;
#X connect 129 0 80 1;
#X connect 130 0 131 0;
#X connect 131 0 72 1;
#X connect 132 0 133 0;
#X connect 133 0 81 1;
#X connect 134 0 135 0;
#X connect 135 0 73 1;
#X connect 136 0 13 0;
