#N canvas 6 23 810 978 10;
#X declare -lib mrpeach;
#N canvas 793 223 563 393 OSCNetwork 0;
#X obj 53 -404 import mrpeach;
#X obj 53 -356 unpackOSC;
#X obj 53 -381 udpreceive 7000;
#X obj 53 -329 outlet;
#X obj 304 -299 print unpacked;
#X connect 1 0 3 0;
#X connect 1 0 4 0;
#X connect 2 0 1 0;
#X restore 864 -62 pd OSCNetwork;
#X obj 1529 -56 routeOSC /MasterVolume;
#X obj 1875 50 routeOSC /object10;
#X obj 2081 48 routeOSC /object11;
#X obj 2287 49 routeOSC /object12;
#X obj 2491 48 routeOSC /object13;
#X obj 2697 48 routeOSC /object14;
#X obj 2903 49 routeOSC /object15;
#N canvas 0 22 450 278 (subpatch) 0;
#X array outputwave 1000 float 2;
#X coords 0 1 1000 -1 200 140 1;
#X restore 231 780 graph;
#X obj 231 923 tgl 15 0 empty empty empty 17 7 0 10 -262144 -1 -1 0
1;
#X obj 31 981 metro 100;
#X obj 25 999 tabwrite~ outputwave;
#X obj 21 587 s~ object01;
#X obj 229 587 s~ object02;
#X obj 433 587 s~ object03;
#X obj 639 587 s~ object04;
#X obj 845 586 s~ object05;
#X obj 1051 586 s~ object06;
#X obj 1257 586 s~ object07;
#X obj 1463 586 s~ object08;
#X obj 1669 586 s~ object09;
#X obj 1875 586 s~ object10;
#X obj 2081 586 s~ object11;
#X obj 2287 586 s~ object12;
#X obj 2491 586 s~ object13;
#X obj 2697 586 s~ object14;
#X obj 2903 586 s~ object15;
#X obj 25 630 my-all-synth-out~;
#X msg 441 912 \; pd dsp 1;
#X msg 441 944 \; pd dsp 0;
#X text 511 919 <- click to turn on;
#X text 511 948 <- click to turn off;
#X obj 25 712 my-mode-switcher~;
#X obj 21 47 routeOSC /object1;
#X obj 229 47 routeOSC /object2;
#X obj 433 46 routeOSC /object3;
#X obj 639 45 routeOSC /object4;
#X obj 845 48 routeOSC /object5;
#X obj 1051 48 routeOSC /object6;
#X obj 1257 46 routeOSC /object7;
#X obj 1462 46 routeOSC /object8;
#X obj 1669 48 routeOSC /object9;
#X obj 25 779 my-output~;
#X obj 792 12 s osc;
#X obj 141 622 my-sequenzer~;
#X obj 21 85 my-synth~;
#X obj 229 85 my-synth~;
#X obj 433 85 my-synth~;
#X obj 639 85 my-synth~;
#X obj 845 84 my-synth~;
#X obj 1051 84 my-synth~;
#X obj 1257 84 my-synth~;
#X obj 1463 84 my-synth~;
#X obj 1669 84 my-synth~;
#X obj 1875 84 my-synth~;
#X obj 2081 84 my-synth~;
#X obj 2287 84 my-synth~;
#X obj 2491 84 my-synth~;
#X obj 2697 84 my-synth~;
#X obj 2903 84 my-synth~;
#X connect 0 0 2 0;
#X connect 0 0 3 0;
#X connect 0 0 4 0;
#X connect 0 0 5 0;
#X connect 0 0 6 0;
#X connect 0 0 7 0;
#X connect 0 0 1 0;
#X connect 0 0 33 0;
#X connect 0 0 34 0;
#X connect 0 0 35 0;
#X connect 0 0 36 0;
#X connect 0 0 37 0;
#X connect 0 0 38 0;
#X connect 0 0 39 0;
#X connect 0 0 40 0;
#X connect 0 0 41 0;
#X connect 0 0 43 0;
#X connect 2 0 54 0;
#X connect 3 0 55 0;
#X connect 4 0 56 0;
#X connect 5 0 57 0;
#X connect 6 0 58 0;
#X connect 7 0 59 0;
#X connect 9 0 10 0;
#X connect 10 0 11 0;
#X connect 27 0 32 0;
#X connect 32 0 42 0;
#X connect 33 0 45 0;
#X connect 34 0 46 0;
#X connect 35 0 47 0;
#X connect 36 0 48 0;
#X connect 37 0 49 0;
#X connect 38 0 50 0;
#X connect 39 0 51 0;
#X connect 40 0 52 0;
#X connect 41 0 53 0;
#X connect 42 0 11 0;
#X connect 44 0 32 1;
#X connect 45 0 12 0;
#X connect 46 0 13 0;
#X connect 47 0 14 0;
#X connect 48 0 15 0;
#X connect 49 0 16 0;
#X connect 50 0 17 0;
#X connect 51 0 18 0;
#X connect 52 0 19 0;
#X connect 53 0 20 0;
#X connect 54 0 21 0;
#X connect 55 0 22 0;
#X connect 56 0 23 0;
#X connect 57 0 24 0;
#X connect 58 0 25 0;
#X connect 59 0 26 0;
